<svg width="32" height="32" viewBox="0 0 32 32" fill="none" xmlns="http://www.w3.org/2000/svg">
<path d="M16.4992 30.8416L26.3424 18.4064C26.5024 18.208 26.3552 17.9072 26.0992 17.9072H5.74079C5.47839 17.9072 5.33759 18.2144 5.50399 18.4128L16.0192 30.848C16.1472 30.9952 16.3776 30.9952 16.4992 30.8416Z" fill="white" style="fill:white;fill-opacity:1;"/>
<path d="M16.256 31.5712C15.9872 31.5712 15.7312 31.456 15.552 31.2448L5.0368 18.816C4.8 18.5408 4.7488 18.1632 4.9024 17.8304C5.056 17.504 5.376 17.2992 5.7408 17.2992H26.0992C26.4576 17.2992 26.7712 17.4976 26.9312 17.8176C27.0848 18.1376 27.0464 18.5088 26.8224 18.7904L16.9792 31.2256C16.8064 31.4432 16.5504 31.5712 16.2688 31.5776C16.2688 31.5712 16.2624 31.5712 16.256 31.5712ZM6.4 18.528L16.2432 30.1696L25.4592 18.528H6.4Z" fill="black" style="fill:black;fill-opacity:1;"/>
<path d="M26.2144 17.3376L16.2304 12.5824C16.0576 12.4992 15.8528 12.5056 15.68 12.5888L5.85601 17.696C5.42721 17.92 5.41441 18.528 5.83041 18.7712L15.6416 24.5504C15.84 24.6656 16.0832 24.6656 16.2752 24.544L26.2784 18.4192C26.688 18.1632 26.656 17.5488 26.2144 17.3376Z" fill="white" style="fill:white;fill-opacity:1;"/>
<path d="M15.9488 25.248C15.7312 25.248 15.52 25.1904 15.328 25.0752L5.51681 19.3024C5.13281 19.0784 4.90241 18.656 4.90881 18.208C4.92161 17.76 5.17121 17.3568 5.56801 17.152L15.3984 12.0448C15.7376 11.8656 16.1472 11.8592 16.4928 12.0256L26.4768 16.7808C26.8864 16.9728 27.1488 17.376 27.1744 17.824C27.2 18.272 26.976 18.7008 26.592 18.9376L16.5888 25.0624C16.3968 25.184 16.1728 25.248 15.9488 25.248ZM15.968 13.1328L6.13761 18.24L15.9488 24.0192L25.952 17.8944L15.968 13.1328Z" fill="black" style="fill:black;fill-opacity:1;"/>
<path d="M16.4992 19.3152L26.3424 6.88C26.5024 6.6816 26.3552 6.3808 26.0992 6.3808H5.74079C5.47839 6.3808 5.33759 6.688 5.50399 6.8864L16.0192 19.328C16.1472 19.4752 16.3776 19.4688 16.4992 19.3152Z" fill="white" style="fill:white;fill-opacity:1;"/>
<path d="M16.256 20.0512C15.9872 20.0512 15.7312 19.9296 15.552 19.7248L5.0368 7.2896C4.8 7.0144 4.7488 6.6368 4.9024 6.304C5.056 5.9776 5.376 5.7728 5.7408 5.7728H26.0992C26.4576 5.7728 26.7712 5.9712 26.9312 6.2912C27.0848 6.6112 27.0464 6.9824 26.8224 7.264L16.9792 19.6992C16.8064 19.9168 16.5504 20.0448 16.2688 20.0512C16.2688 20.0512 16.2624 20.0512 16.256 20.0512ZM6.4 7.0016L16.2432 18.6432L25.4592 7.0016H6.4Z" fill="black" style="fill:black;fill-opacity:1;"/>
<path d="M26.2144 5.8112L16.2304 1.056C16.0576 0.972796 15.8528 0.979196 15.68 1.0624L5.85601 6.176C5.42721 6.4 5.41441 7.008 5.83041 7.2512L15.6416 13.0304C15.84 13.1456 16.0832 13.1456 16.2752 13.024L26.2784 6.8992C26.688 6.6368 26.656 6.0224 26.2144 5.8112Z" fill="white" style="fill:white;fill-opacity:1;"/>
<path d="M15.9488 13.7216C15.7312 13.7216 15.52 13.664 15.328 13.5488L5.51681 7.77601C5.13281 7.55201 4.90241 7.12961 4.90881 6.68161C4.92161 6.23361 5.17121 5.83041 5.56801 5.62561L15.4048 0.518406C15.744 0.339206 16.1536 0.332806 16.4992 0.499206L26.4832 5.25441C26.8928 5.44641 27.1552 5.84961 27.1808 6.29761C27.2064 6.74561 26.9824 7.17441 26.5984 7.41121L16.5952 13.536C16.3968 13.664 16.1728 13.7216 15.9488 13.7216ZM15.968 1.61281L6.13761 6.72001L15.9488 12.4992L25.952 6.37441L15.968 1.61281Z" fill="black" style="fill:black;fill-opacity:1;"/>
</svg>
