<svg width="32" height="32" viewBox="0 0 32 32" fill="none" xmlns="http://www.w3.org/2000/svg">
<g clip-path="url(#clip0_2113_512)">
<path d="M16.0192 31.8464C24.7568 31.8464 31.84 24.7632 31.84 16.0256C31.84 7.28802 24.7568 0.204803 16.0192 0.204803C7.28161 0.204803 0.198399 7.28802 0.198399 16.0256C0.198399 24.7632 7.28161 31.8464 16.0192 31.8464Z" fill="url(#paint0_linear_2113_512)"/>
<path d="M16.5248 23.5136H10.6944V15.52H14.2336V19.9488H16.5248C18.6688 19.9488 20.2112 18.0032 20.2112 16.16V16.0896C20.2112 14.0224 18.4448 12.1984 16.5248 12.1984H12.9856C10.336 12.1984 9.5424 10.5856 8.5568 8.7424H16.5248C21.3952 8.7424 23.9488 11.84 23.9488 16.0896V16.16C23.9552 20.8512 20.7808 23.5136 16.5248 23.5136Z" fill="white" style="fill:white;fill-opacity:1;"/>
</g>
<defs>
<linearGradient id="paint0_linear_2113_512" x1="4.83153" y1="4.83942" x2="27.2031" y2="27.211" gradientUnits="userSpaceOnUse">
<stop stop-color="#814BEC" style="stop-color:#814BEC;stop-color:color(display-p3 0.5059 0.2941 0.9255);stop-opacity:1;"/>
<stop offset="0.9996" stop-color="#3D6AD7" style="stop-color:#3D6AD7;stop-color:color(display-p3 0.2392 0.4157 0.8431);stop-opacity:1;"/>
</linearGradient>
<clipPath id="clip0_2113_512">
<rect width="32" height="32" fill="white" style="fill:white;fill-opacity:1;"/>
</clipPath>
</defs>
</svg>
