<svg width="32" height="32" viewBox="0 0 32 32" fill="none" xmlns="http://www.w3.org/2000/svg">
<g clip-path="url(#clip0_2113_781)">
<path d="M30.4768 9.88162C30.1248 9.05602 29.7088 8.26242 29.2288 7.51362C29.184 7.41122 29.12 7.31522 29.0432 7.23202C28.48 6.39362 27.8336 5.60642 27.1104 4.88322C25.6704 3.44322 23.9872 2.31042 22.1184 1.51682C20.1792 0.697616 18.1184 0.281616 16 0.281616C13.8816 0.281616 11.8208 0.697616 9.8816 1.51682C8.0128 2.31042 6.3296 3.44322 4.8896 4.88322C3.4496 6.32322 2.3168 8.00642 1.5232 9.87522C0.697601 11.8208 0.281601 13.8816 0.281601 16C0.281601 18.1184 0.697601 20.1792 1.5168 22.1184C2.3104 23.9872 3.4432 25.6704 4.8832 27.1104C6.3232 28.5504 8.0064 29.6832 9.8752 30.4768C11.8144 31.296 13.8752 31.712 15.9936 31.712C18.112 31.712 20.1728 31.296 22.112 30.4768C23.9808 29.6832 25.664 28.5504 27.104 27.1104C28.544 25.6704 29.6768 23.9872 30.4704 22.1184C31.2896 20.1792 31.7056 18.1184 31.7056 16C31.7184 13.8816 31.3024 11.8208 30.4768 9.88162ZM16 2.41282C20.4608 2.41282 24.4224 4.56322 26.8992 7.88482C26.1504 8.64642 24.6272 9.94562 22.6176 10.368C22.4 10.4128 22.1888 10.4576 21.984 10.4896C21.7792 10.0032 21.5808 9.57442 21.3952 9.22882C20.8192 8.12162 19.712 6.86082 18.3424 6.65602C17.5296 6.53442 16.7424 6.80962 16.1344 7.42402C15.5648 8.00002 15.3024 8.75522 15.3984 9.55522C15.5136 10.5344 16.1856 11.5136 17.1456 12.1152C18.1184 12.7232 19.3536 12.864 20.5504 12.8064C21.1072 14.7392 21.3568 17.2672 20.1024 19.6224C19.4304 20.8896 18.528 22.0096 17.504 22.848C16.7872 23.4368 16.1856 23.7568 15.7824 23.9232C15.616 23.9936 15.4304 23.904 15.3728 23.7376C15.2576 23.3792 15.104 22.9184 14.9504 22.4704C14.8736 22.2464 14.8032 22.0288 14.7392 21.8432C14.272 20.4416 13.1776 17.152 11.0144 13.9584C9.0688 11.0848 5.9968 8.53122 5.1328 7.84642C7.616 4.54402 11.5584 2.41282 16 2.41282ZM19.744 10.6752C19.1168 10.6432 18.6176 10.5216 18.2656 10.304C17.8624 10.0544 17.5488 9.63842 17.5104 9.29922C17.4912 9.14562 17.536 9.03682 17.6512 8.91522C17.7856 8.78082 17.8816 8.74882 17.9648 8.74882C17.9904 8.74882 18.0096 8.74882 18.0288 8.75522C18.4192 8.81282 19.0592 9.33122 19.5136 10.208C19.5776 10.3424 19.6608 10.496 19.744 10.6752ZM16 29.5872C8.4928 29.5872 2.4128 23.5008 2.4128 16C2.4128 13.7024 2.9824 11.5392 3.9872 9.64482C4.96 10.4384 7.6032 12.704 9.2544 15.1424C11.2512 18.0928 12.2432 21.0752 12.7232 22.5024C12.7872 22.688 12.8576 22.9056 12.9344 23.136C13.1392 23.7376 13.3888 24.4928 13.4848 24.8C13.7344 25.6448 14.5024 26.1952 15.3472 26.1952C15.5008 26.1952 15.6608 26.176 15.8208 26.1376C17.2032 25.792 20.0576 24.2368 21.984 20.6016C23.0912 18.5152 23.3984 16.1344 22.9056 13.5168C22.8416 13.1712 22.7648 12.8384 22.6816 12.512C22.816 12.4864 22.944 12.4608 23.0656 12.4352C25.312 11.9616 27.04 10.6688 28.064 9.71522C29.0432 11.5904 29.6 13.728 29.6 15.9936C29.5872 23.5072 23.5072 29.5872 16 29.5872Z" fill="#02AD52" style="fill:#02AD52;fill:color(display-p3 0.0078 0.6784 0.3216);fill-opacity:1;"/>
</g>
<defs>
<clipPath id="clip0_2113_781">
<rect width="32" height="32" fill="white" style="fill:white;fill-opacity:1;"/>
</clipPath>
</defs>
</svg>
